{
    "asset" : {
        "generator" : "Khronos glTF Blender I/O v1.4.40",
        "version" : "2.0"
    },
    "scene" : 0,
    "scenes" : [
        {
            "name" : "Scene",
            "nodes" : [
                0,
                1,
                2,
                3,
                4,
                5
            ]
        }
    ],
    "nodes" : [
        {
            "mesh" : 0,
            "name" : "Cube",
            "translation" : [
                -0.8000062108039856,
                0.4801442325115204,
                -1.7825124263763428
            ]
        },
        {
            "mesh" : 1,
            "name" : "CUBEYENI.002",
            "translation" : [
                -0.4997725486755371,
                0.32009613513946533,
                -2.1023006439208984
            ]
        },
        {
            "mesh" : 2,
            "name" : "Cube.001",
            "translation" : [
                -0.19953900575637817,
                0.4801442325115204,
                -1.7825124263763428
            ]
        },
        {
            "mesh" : 3,
            "name" : "Kulp_Cylinder.005",
            "rotation" : [
                0,
                0.7071068286895752,
                0,
                0.7071067690849304
            ],
            "translation" : [
                -0.5484557747840881,
                0.4801420569419861,
                -1.7482975721359253
            ]
        },
        {
            "mesh" : 4,
            "name" : "Sink_obj",
            "rotation" : [
                0,
                0.7071068286895752,
                0,
                0.7071068286895752
            ],
            "translation" : [
                -0.4996525049209595,
                0.8521712422370911,
                -2.1345856189727783
            ]
        },
        {
            "mesh" : 5,
            "name" : "Kulp_Cylinder.000",
            "rotation" : [
                0,
                0.7071068286895752,
                0,
                0.7071067690849304
            ],
            "translation" : [
                -0.45108965039253235,
                0.4801420569419861,
                -1.7482975721359253
            ]
        }
    ],
    "materials" : [
        {
            "doubleSided" : true,
            "name" : "White",
            "pbrMetallicRoughness" : {
                "baseColorFactor" : [
                    0.800000011920929,
                    0.800000011920929,
                    0.800000011920929,
                    1
                ],
                "metallicFactor" : 0,
                "roughnessFactor" : 0.25999999046325684
            }
        },
        {
            "doubleSided" : true,
            "name" : "Wood",
            "normalTexture" : {
                "index" : 0,
                "scale" : 1.399999976158142,
                "texCoord" : 0
            },
            "pbrMetallicRoughness" : {
                "baseColorTexture" : {
                    "index" : 1,
                    "texCoord" : 0
                },
                "metallicFactor" : 0,
                "roughnessFactor" : 0.5
            }
        },
        {
            "doubleSided" : true,
            "name" : "wire_115115115",
            "pbrMetallicRoughness" : {
                "baseColorFactor" : [
                    0.5126470327377319,
                    0.5126470327377319,
                    0.5126470327377319,
                    1
                ],
                "roughnessFactor" : 0.3140000104904175
            }
        }
    ],
    "meshes" : [
        {
            "name" : "Cube",
            "primitives" : [
                {
                    "attributes" : {
                        "POSITION" : 0,
                        "NORMAL" : 1,
                        "TEXCOORD_0" : 2
                    },
                    "indices" : 3,
                    "material" : 0
                }
            ]
        },
        {
            "name" : "Cube.007",
            "primitives" : [
                {
                    "attributes" : {
                        "POSITION" : 4,
                        "NORMAL" : 5,
                        "TEXCOORD_0" : 6
                    },
                    "indices" : 7,
                    "material" : 1
                }
            ]
        },
        {
            "name" : "Cube.001",
            "primitives" : [
                {
                    "attributes" : {
                        "POSITION" : 8,
                        "NORMAL" : 9,
                        "TEXCOORD_0" : 10
                    },
                    "indices" : 11,
                    "material" : 0
                }
            ]
        },
        {
            "name" : "Kulp_Cylinder.006",
            "primitives" : [
                {
                    "attributes" : {
                        "POSITION" : 12,
                        "NORMAL" : 13,
                        "TEXCOORD_0" : 14
                    },
                    "indices" : 15,
                    "material" : 2
                }
            ]
        },
        {
            "name" : "Sink_obj",
            "primitives" : [
                {
                    "attributes" : {
                        "POSITION" : 16,
                        "NORMAL" : 17,
                        "TEXCOORD_0" : 18
                    },
                    "indices" : 19,
                    "material" : 2
                }
            ]
        },
        {
            "name" : "Kulp_Cylinder.001",
            "primitives" : [
                {
                    "attributes" : {
                        "POSITION" : 20,
                        "NORMAL" : 21,
                        "TEXCOORD_0" : 22
                    },
                    "indices" : 15,
                    "material" : 2
                }
            ]
        }
    ],
    "textures" : [
        {
            "sampler" : 0,
            "source" : 0
        },
        {
            "sampler" : 0,
            "source" : 1
        }
    ],
    "images" : [
        {
            "mimeType" : "image/jpeg",
            "name" : "WoodQuarteredChiffon001_NRM_1K",
            "uri" : "WoodQuarteredChiffon001_NRM_1K.jpg"
        },
        {
            "mimeType" : "image/jpeg",
            "name" : "WoodQuarteredChiffon001_COL_2K",
            "uri" : "WoodQuarteredChiffon001_COL_2K.jpg"
        }
    ],
    "accessors" : [
        {
            "bufferView" : 0,
            "componentType" : 5126,
            "count" : 1156,
            "max" : [
                0.29975616931915283,
                0.37998971343040466,
                0.009989572688937187
            ],
            "min" : [
                -0.29975616931915283,
                -0.37998971343040466,
                -0.009989572688937187
            ],
            "type" : "VEC3"
        },
        {
            "bufferView" : 1,
            "componentType" : 5126,
            "count" : 1156,
            "type" : "VEC3"
        },
        {
            "bufferView" : 2,
            "componentType" : 5126,
            "count" : 1156,
            "type" : "VEC2"
        },
        {
            "bufferView" : 3,
            "componentType" : 5123,
            "count" : 6084,
            "type" : "SCALAR"
        },
        {
            "bufferView" : 4,
            "componentType" : 5126,
            "count" : 2744,
            "max" : [
                0.6000002026557922,
                0.5400481820106506,
                0.3098866641521454
            ],
            "min" : [
                -0.6000001430511475,
                -0.3200961947441101,
                -0.2901134490966797
            ],
            "type" : "VEC3"
        },
        {
            "bufferView" : 5,
            "componentType" : 5126,
            "count" : 2744,
            "type" : "VEC3"
        },
        {
            "bufferView" : 6,
            "componentType" : 5126,
            "count" : 2744,
            "type" : "VEC2"
        },
        {
            "bufferView" : 7,
            "componentType" : 5123,
            "count" : 12024,
            "type" : "SCALAR"
        },
        {
            "bufferView" : 8,
            "componentType" : 5126,
            "count" : 1156,
            "max" : [
                0.29975616931915283,
                0.37998971343040466,
                0.009989572688937187
            ],
            "min" : [
                -0.29975616931915283,
                -0.37998971343040466,
                -0.009989572688937187
            ],
            "type" : "VEC3"
        },
        {
            "bufferView" : 9,
            "componentType" : 5126,
            "count" : 1156,
            "type" : "VEC3"
        },
        {
            "bufferView" : 10,
            "componentType" : 5126,
            "count" : 1156,
            "type" : "VEC2"
        },
        {
            "bufferView" : 11,
            "componentType" : 5123,
            "count" : 6084,
            "type" : "SCALAR"
        },
        {
            "bufferView" : 12,
            "componentType" : 5126,
            "count" : 1946,
            "max" : [
                0.024944018572568893,
                0.09957098960876465,
                0.0072780027985572815
            ],
            "min" : [
                -0.007278027944266796,
                -0.09957098960876465,
                -0.0072780027985572815
            ],
            "type" : "VEC3"
        },
        {
            "bufferView" : 13,
            "componentType" : 5126,
            "count" : 1946,
            "type" : "VEC3"
        },
        {
            "bufferView" : 14,
            "componentType" : 5126,
            "count" : 1946,
            "type" : "VEC2"
        },
        {
            "bufferView" : 15,
            "componentType" : 5123,
            "count" : 9792,
            "type" : "SCALAR"
        },
        {
            "bufferView" : 16,
            "componentType" : 5126,
            "count" : 32263,
            "max" : [
                0.16690745949745178,
                0.1621895134449005,
                0.3678927421569824
            ],
            "min" : [
                -0.2610855996608734,
                -0.16688448190689087,
                -0.4347882568836212
            ],
            "type" : "VEC3"
        },
        {
            "bufferView" : 17,
            "componentType" : 5126,
            "count" : 32263,
            "type" : "VEC3"
        },
        {
            "bufferView" : 18,
            "componentType" : 5126,
            "count" : 32263,
            "type" : "VEC2"
        },
        {
            "bufferView" : 19,
            "componentType" : 5123,
            "count" : 148476,
            "type" : "SCALAR"
        },
        {
            "bufferView" : 20,
            "componentType" : 5126,
            "count" : 1946,
            "max" : [
                0.024944018572568893,
                0.09957098960876465,
                0.0072780027985572815
            ],
            "min" : [
                -0.007278027944266796,
                -0.09957098960876465,
                -0.0072780027985572815
            ],
            "type" : "VEC3"
        },
        {
            "bufferView" : 21,
            "componentType" : 5126,
            "count" : 1946,
            "type" : "VEC3"
        },
        {
            "bufferView" : 22,
            "componentType" : 5126,
            "count" : 1946,
            "type" : "VEC2"
        }
    ],
    "bufferViews" : [
        {
            "buffer" : 0,
            "byteLength" : 13872,
            "byteOffset" : 0
        },
        {
            "buffer" : 0,
            "byteLength" : 13872,
            "byteOffset" : 13872
        },
        {
            "buffer" : 0,
            "byteLength" : 9248,
            "byteOffset" : 27744
        },
        {
            "buffer" : 0,
            "byteLength" : 12168,
            "byteOffset" : 36992
        },
        {
            "buffer" : 0,
            "byteLength" : 32928,
            "byteOffset" : 49160
        },
        {
            "buffer" : 0,
            "byteLength" : 32928,
            "byteOffset" : 82088
        },
        {
            "buffer" : 0,
            "byteLength" : 21952,
            "byteOffset" : 115016
        },
        {
            "buffer" : 0,
            "byteLength" : 24048,
            "byteOffset" : 136968
        },
        {
            "buffer" : 0,
            "byteLength" : 13872,
            "byteOffset" : 161016
        },
        {
            "buffer" : 0,
            "byteLength" : 13872,
            "byteOffset" : 174888
        },
        {
            "buffer" : 0,
            "byteLength" : 9248,
            "byteOffset" : 188760
        },
        {
            "buffer" : 0,
            "byteLength" : 12168,
            "byteOffset" : 198008
        },
        {
            "buffer" : 0,
            "byteLength" : 23352,
            "byteOffset" : 210176
        },
        {
            "buffer" : 0,
            "byteLength" : 23352,
            "byteOffset" : 233528
        },
        {
            "buffer" : 0,
            "byteLength" : 15568,
            "byteOffset" : 256880
        },
        {
            "buffer" : 0,
            "byteLength" : 19584,
            "byteOffset" : 272448
        },
        {
            "buffer" : 0,
            "byteLength" : 387156,
            "byteOffset" : 292032
        },
        {
            "buffer" : 0,
            "byteLength" : 387156,
            "byteOffset" : 679188
        },
        {
            "buffer" : 0,
            "byteLength" : 258104,
            "byteOffset" : 1066344
        },
        {
            "buffer" : 0,
            "byteLength" : 296952,
            "byteOffset" : 1324448
        },
        {
            "buffer" : 0,
            "byteLength" : 23352,
            "byteOffset" : 1621400
        },
        {
            "buffer" : 0,
            "byteLength" : 23352,
            "byteOffset" : 1644752
        },
        {
            "buffer" : 0,
            "byteLength" : 15568,
            "byteOffset" : 1668104
        }
    ],
    "samplers" : [
        {
            "magFilter" : 9729,
            "minFilter" : 9986
        }
    ],
    "buffers" : [
        {
            "byteLength" : 1683672,
            "uri" : "SinkUnit.bin"
        }
    ]
}
