{
    "asset" : {
        "generator" : "Khronos glTF Blender I/O v1.4.40",
        "version" : "2.0"
    },
    "scene" : 0,
    "scenes" : [
        {
            "name" : "Scene",
            "nodes" : [
                0,
                1,
                2,
                3
            ]
        }
    ],
    "nodes" : [
        {
            "mesh" : 0,
            "name" : "Cube.123",
            "rotation" : [
                0,
                0.13319644331932068,
                0,
                0.9910897612571716
            ],
            "translation" : [
                0.01954665221273899,
                0.5232109427452087,
                -0.07053422182798386
            ]
        },
        {
            "mesh" : 1,
            "name" : "new.002",
            "rotation" : [
                0,
                -0.010096600279211998,
                0,
                0.999949038028717
            ],
            "translation" : [
                0.18292459845542908,
                0.36537888646125793,
                0.19868724048137665
            ]
        },
        {
            "mesh" : 2,
            "name" : "new.003",
            "rotation" : [
                0,
                -0.010096600279211998,
                0,
                0.999949038028717
            ],
            "scale" : [
                -1,
                1,
                1
            ],
            "translation" : [
                -0.1203567162156105,
                0.36537888646125793,
                0.19868724048137665
            ]
        },
        {
            "mesh" : 3,
            "name" : "new.001",
            "rotation" : [
                0,
                -0.6360297799110413,
                0,
                0.7716645002365112
            ],
            "scale" : [
                -1,
                1,
                1
            ],
            "translation" : [
                -0.07816794514656067,
                0.36537888646125793,
                -0.3208453059196472
            ]
        }
    ],
    "materials" : [
        {
            "doubleSided" : true,
            "name" : "Wood",
            "normalTexture" : {
                "index" : 0,
                "scale" : 1.399999976158142,
                "texCoord" : 0
            },
            "pbrMetallicRoughness" : {
                "baseColorTexture" : {
                    "index" : 1,
                    "texCoord" : 0
                },
                "metallicFactor" : 0,
                "roughnessFactor" : 0.36000001430511475
            }
        }
    ],
    "meshes" : [
        {
            "name" : "Cube.013",
            "primitives" : [
                {
                    "attributes" : {
                        "POSITION" : 0,
                        "NORMAL" : 1,
                        "TEXCOORD_0" : 2
                    },
                    "indices" : 3,
                    "material" : 0
                }
            ]
        },
        {
            "name" : "Cylinder.006",
            "primitives" : [
                {
                    "attributes" : {
                        "POSITION" : 4,
                        "NORMAL" : 5,
                        "TEXCOORD_0" : 6
                    },
                    "indices" : 7,
                    "material" : 0
                }
            ]
        },
        {
            "name" : "Cylinder.000",
            "primitives" : [
                {
                    "attributes" : {
                        "POSITION" : 8,
                        "NORMAL" : 9,
                        "TEXCOORD_0" : 10
                    },
                    "indices" : 11,
                    "material" : 0
                }
            ]
        },
        {
            "name" : "Cylinder.001",
            "primitives" : [
                {
                    "attributes" : {
                        "POSITION" : 12,
                        "NORMAL" : 13,
                        "TEXCOORD_0" : 14
                    },
                    "indices" : 15,
                    "material" : 0
                }
            ]
        }
    ],
    "textures" : [
        {
            "sampler" : 0,
            "source" : 0
        },
        {
            "sampler" : 0,
            "source" : 1
        }
    ],
    "images" : [
        {
            "mimeType" : "image/jpeg",
            "name" : "WoodFineDark004_NRM_1K",
            "uri" : "WoodFineDark004_NRM_1K.jpg"
        },
        {
            "mimeType" : "image/jpeg",
            "name" : "WoodFineDark004_COL_1K",
            "uri" : "WoodFineDark004_COL_1K.jpg"
        }
    ],
    "accessors" : [
        {
            "bufferView" : 0,
            "componentType" : 5126,
            "count" : 13338,
            "max" : [
                0.29988136887550354,
                0.015000523999333382,
                0.5414608716964722
            ],
            "min" : [
                -0.379131019115448,
                -0.015000523999333382,
                -0.5018346905708313
            ],
            "type" : "VEC3"
        },
        {
            "bufferView" : 1,
            "componentType" : 5126,
            "count" : 13338,
            "type" : "VEC3"
        },
        {
            "bufferView" : 2,
            "componentType" : 5126,
            "count" : 13338,
            "type" : "VEC2"
        },
        {
            "bufferView" : 3,
            "componentType" : 5123,
            "count" : 74112,
            "type" : "SCALAR"
        },
        {
            "bufferView" : 4,
            "componentType" : 5126,
            "count" : 1401,
            "max" : [
                0.04618707299232483,
                0.14691029489040375,
                0.026411455124616623
            ],
            "min" : [
                -0.02612297795712948,
                -0.36540982127189636,
                -0.026217063888907433
            ],
            "type" : "VEC3"
        },
        {
            "bufferView" : 5,
            "componentType" : 5126,
            "count" : 1401,
            "type" : "VEC3"
        },
        {
            "bufferView" : 6,
            "componentType" : 5126,
            "count" : 1401,
            "type" : "VEC2"
        },
        {
            "bufferView" : 7,
            "componentType" : 5123,
            "count" : 7296,
            "type" : "SCALAR"
        },
        {
            "bufferView" : 8,
            "componentType" : 5126,
            "count" : 1338,
            "max" : [
                0.04618707299232483,
                0.14691029489040375,
                0.026411455124616623
            ],
            "min" : [
                -0.02612297795712948,
                -0.36540982127189636,
                -0.026217063888907433
            ],
            "type" : "VEC3"
        },
        {
            "bufferView" : 9,
            "componentType" : 5126,
            "count" : 1338,
            "type" : "VEC3"
        },
        {
            "bufferView" : 10,
            "componentType" : 5126,
            "count" : 1338,
            "type" : "VEC2"
        },
        {
            "bufferView" : 11,
            "componentType" : 5123,
            "count" : 6912,
            "type" : "SCALAR"
        },
        {
            "bufferView" : 12,
            "componentType" : 5126,
            "count" : 1343,
            "max" : [
                0.04618707299232483,
                0.14691029489040375,
                0.026411455124616623
            ],
            "min" : [
                -0.02612297795712948,
                -0.36540982127189636,
                -0.026217063888907433
            ],
            "type" : "VEC3"
        },
        {
            "bufferView" : 13,
            "componentType" : 5126,
            "count" : 1343,
            "type" : "VEC3"
        },
        {
            "bufferView" : 14,
            "componentType" : 5126,
            "count" : 1343,
            "type" : "VEC2"
        },
        {
            "bufferView" : 15,
            "componentType" : 5123,
            "count" : 6912,
            "type" : "SCALAR"
        }
    ],
    "bufferViews" : [
        {
            "buffer" : 0,
            "byteLength" : 160056,
            "byteOffset" : 0
        },
        {
            "buffer" : 0,
            "byteLength" : 160056,
            "byteOffset" : 160056
        },
        {
            "buffer" : 0,
            "byteLength" : 106704,
            "byteOffset" : 320112
        },
        {
            "buffer" : 0,
            "byteLength" : 148224,
            "byteOffset" : 426816
        },
        {
            "buffer" : 0,
            "byteLength" : 16812,
            "byteOffset" : 575040
        },
        {
            "buffer" : 0,
            "byteLength" : 16812,
            "byteOffset" : 591852
        },
        {
            "buffer" : 0,
            "byteLength" : 11208,
            "byteOffset" : 608664
        },
        {
            "buffer" : 0,
            "byteLength" : 14592,
            "byteOffset" : 619872
        },
        {
            "buffer" : 0,
            "byteLength" : 16056,
            "byteOffset" : 634464
        },
        {
            "buffer" : 0,
            "byteLength" : 16056,
            "byteOffset" : 650520
        },
        {
            "buffer" : 0,
            "byteLength" : 10704,
            "byteOffset" : 666576
        },
        {
            "buffer" : 0,
            "byteLength" : 13824,
            "byteOffset" : 677280
        },
        {
            "buffer" : 0,
            "byteLength" : 16116,
            "byteOffset" : 691104
        },
        {
            "buffer" : 0,
            "byteLength" : 16116,
            "byteOffset" : 707220
        },
        {
            "buffer" : 0,
            "byteLength" : 10744,
            "byteOffset" : 723336
        },
        {
            "buffer" : 0,
            "byteLength" : 13824,
            "byteOffset" : 734080
        }
    ],
    "samplers" : [
        {
            "magFilter" : 9729,
            "minFilter" : 9986
        }
    ],
    "buffers" : [
        {
            "byteLength" : 747904,
            "uri" : "CoffeeTable.bin"
        }
    ]
}
